<mxfile host="app.diagrams.net" modified="2023-11-30T18:21:20.722Z" agent="Mozilla/5.0 (Macintosh; Intel Mac OS X 10_15_7) AppleWebKit/537.36 (KHTML, like Gecko) Chrome/119.0.0.0 Safari/537.36" etag="68c-9Pd62v6M2c89XR05" version="22.1.5" type="github">
  <diagram name="Page-1" id="QnDPWNosyGdadTyW6Ekd">
    <mxGraphModel dx="1487" dy="2179" grid="0" gridSize="10" guides="1" tooltips="1" connect="1" arrows="1" fold="1" page="0" pageScale="1" pageWidth="850" pageHeight="1100" background="#0D0D0D" math="0" shadow="0">
      <root>
        <mxCell id="0" />
        <mxCell id="1" parent="0" />
        <mxCell id="rTGL_3dFPh7_Ok8thwQr-13" style="edgeStyle=orthogonalEdgeStyle;rounded=0;orthogonalLoop=1;jettySize=auto;html=1;entryX=0;entryY=0.5;entryDx=0;entryDy=0;fillColor=#dae8fc;strokeColor=#6c8ebf;strokeWidth=2;" parent="1" source="AdRa6NuN1TQCRi0MgPPj-2" target="_cTKvnzmP2ruFUYqaLfK-1" edge="1">
          <mxGeometry relative="1" as="geometry" />
        </mxCell>
        <mxCell id="AdRa6NuN1TQCRi0MgPPj-2" value="MODELS AND TABLES" style="swimlane;whiteSpace=wrap;html=1;fillColor=#f8cecc;strokeColor=#b85450;rounded=0;strokeWidth=3;" parent="1" vertex="1">
          <mxGeometry x="-209" y="-786" width="640" height="634" as="geometry">
            <mxRectangle x="10" y="-780" width="170" height="30" as="alternateBounds" />
          </mxGeometry>
        </mxCell>
        <mxCell id="AdRa6NuN1TQCRi0MgPPj-7" value="User (users)" style="swimlane;fontStyle=0;childLayout=stackLayout;horizontal=1;startSize=30;horizontalStack=0;resizeParent=1;resizeParentMax=0;resizeLast=0;collapsible=1;marginBottom=0;whiteSpace=wrap;html=1;fillColor=#fa6800;strokeColor=#C73500;fontColor=#FFFFFF;" parent="AdRa6NuN1TQCRi0MgPPj-2" vertex="1">
          <mxGeometry x="80" y="40" width="140" height="269" as="geometry" />
        </mxCell>
        <mxCell id="AdRa6NuN1TQCRi0MgPPj-8" value="id" style="text;strokeColor=#C73500;fillColor=#fa6800;align=left;verticalAlign=middle;spacingLeft=4;spacingRight=4;overflow=hidden;points=[[0,0.5],[1,0.5]];portConstraint=eastwest;rotatable=0;whiteSpace=wrap;html=1;fontColor=#FFFFFF;" parent="AdRa6NuN1TQCRi0MgPPj-7" vertex="1">
          <mxGeometry y="30" width="140" height="30" as="geometry" />
        </mxCell>
        <mxCell id="AdRa6NuN1TQCRi0MgPPj-12" value="accountType" style="text;strokeColor=#C73500;fillColor=#fa6800;align=left;verticalAlign=middle;spacingLeft=4;spacingRight=4;overflow=hidden;points=[[0,0.5],[1,0.5]];portConstraint=eastwest;rotatable=0;whiteSpace=wrap;html=1;fontColor=#FFFFFF;" parent="AdRa6NuN1TQCRi0MgPPj-7" vertex="1">
          <mxGeometry y="60" width="140" height="30" as="geometry" />
        </mxCell>
        <mxCell id="AdRa6NuN1TQCRi0MgPPj-10" value="password" style="text;strokeColor=#C73500;fillColor=#fa6800;align=left;verticalAlign=middle;spacingLeft=4;spacingRight=4;overflow=hidden;points=[[0,0.5],[1,0.5]];portConstraint=eastwest;rotatable=0;whiteSpace=wrap;html=1;fontColor=#FFFFFF;" parent="AdRa6NuN1TQCRi0MgPPj-7" vertex="1">
          <mxGeometry y="90" width="140" height="30" as="geometry" />
        </mxCell>
        <mxCell id="AdRa6NuN1TQCRi0MgPPj-11" value="username" style="text;strokeColor=#C73500;fillColor=#fa6800;align=left;verticalAlign=middle;spacingLeft=4;spacingRight=4;overflow=hidden;points=[[0,0.5],[1,0.5]];portConstraint=eastwest;rotatable=0;whiteSpace=wrap;html=1;fontColor=#FFFFFF;" parent="AdRa6NuN1TQCRi0MgPPj-7" vertex="1">
          <mxGeometry y="120" width="140" height="30" as="geometry" />
        </mxCell>
        <mxCell id="9A2f1Cr-HDYLRXTjJS4K-1" value="currentAnimal" style="text;strokeColor=#005700;fillColor=#008a00;align=left;verticalAlign=middle;spacingLeft=4;spacingRight=4;overflow=hidden;points=[[0,0.5],[1,0.5]];portConstraint=eastwest;rotatable=0;whiteSpace=wrap;html=1;fontColor=#ffffff;" vertex="1" parent="AdRa6NuN1TQCRi0MgPPj-7">
          <mxGeometry y="150" width="140" height="30" as="geometry" />
        </mxCell>
        <mxCell id="xWQlsnRgKybAR5OPVelj-9" value="taggedAnimals" style="text;strokeColor=#005700;fillColor=#008a00;align=left;verticalAlign=middle;spacingLeft=4;spacingRight=4;overflow=hidden;points=[[0,0.5],[1,0.5]];portConstraint=eastwest;rotatable=0;whiteSpace=wrap;html=1;fontColor=#ffffff;" parent="AdRa6NuN1TQCRi0MgPPj-7" vertex="1">
          <mxGeometry y="180" width="140" height="30" as="geometry" />
        </mxCell>
        <mxCell id="xWQlsnRgKybAR5OPVelj-18" value="posts" style="text;strokeColor=#A50040;fillColor=#d80073;align=left;verticalAlign=middle;spacingLeft=4;spacingRight=4;overflow=hidden;points=[[0,0.5],[1,0.5]];portConstraint=eastwest;rotatable=0;whiteSpace=wrap;html=1;fontColor=#ffffff;" parent="AdRa6NuN1TQCRi0MgPPj-7" vertex="1">
          <mxGeometry y="210" width="140" height="30" as="geometry" />
        </mxCell>
        <mxCell id="xWQlsnRgKybAR5OPVelj-17" value="messages" style="text;strokeColor=#006EAF;fillColor=#1ba1e2;align=left;verticalAlign=middle;spacingLeft=4;spacingRight=4;overflow=hidden;points=[[0,0.5],[1,0.5]];portConstraint=eastwest;rotatable=0;whiteSpace=wrap;html=1;fontColor=#ffffff;" parent="AdRa6NuN1TQCRi0MgPPj-7" vertex="1">
          <mxGeometry y="240" width="140" height="29" as="geometry" />
        </mxCell>
        <mxCell id="AdRa6NuN1TQCRi0MgPPj-14" value="Animal (animals)" style="swimlane;fontStyle=0;childLayout=stackLayout;horizontal=1;startSize=30;horizontalStack=0;resizeParent=1;resizeParentMax=0;resizeLast=0;collapsible=1;marginBottom=0;whiteSpace=wrap;html=1;fillColor=#008a00;strokeColor=#005700;fontColor=#ffffff;" parent="AdRa6NuN1TQCRi0MgPPj-2" vertex="1">
          <mxGeometry x="440" y="40" width="140" height="300" as="geometry" />
        </mxCell>
        <mxCell id="AdRa6NuN1TQCRi0MgPPj-15" value="id" style="text;strokeColor=#005700;fillColor=#008a00;align=left;verticalAlign=middle;spacingLeft=4;spacingRight=4;overflow=hidden;points=[[0,0.5],[1,0.5]];portConstraint=eastwest;rotatable=0;whiteSpace=wrap;html=1;fontColor=#ffffff;" parent="AdRa6NuN1TQCRi0MgPPj-14" vertex="1">
          <mxGeometry y="30" width="140" height="30" as="geometry" />
        </mxCell>
        <mxCell id="AdRa6NuN1TQCRi0MgPPj-16" value="name" style="text;strokeColor=#005700;fillColor=#008a00;align=left;verticalAlign=middle;spacingLeft=4;spacingRight=4;overflow=hidden;points=[[0,0.5],[1,0.5]];portConstraint=eastwest;rotatable=0;whiteSpace=wrap;html=1;fontColor=#ffffff;" parent="AdRa6NuN1TQCRi0MgPPj-14" vertex="1">
          <mxGeometry y="60" width="140" height="30" as="geometry" />
        </mxCell>
        <mxCell id="AdRa6NuN1TQCRi0MgPPj-17" value="species" style="text;strokeColor=#005700;fillColor=#008a00;align=left;verticalAlign=middle;spacingLeft=4;spacingRight=4;overflow=hidden;points=[[0,0.5],[1,0.5]];portConstraint=eastwest;rotatable=0;whiteSpace=wrap;html=1;fontColor=#ffffff;" parent="AdRa6NuN1TQCRi0MgPPj-14" vertex="1">
          <mxGeometry y="90" width="140" height="30" as="geometry" />
        </mxCell>
        <mxCell id="AdRa6NuN1TQCRi0MgPPj-21" value="breed" style="text;strokeColor=#005700;fillColor=#008a00;align=left;verticalAlign=middle;spacingLeft=4;spacingRight=4;overflow=hidden;points=[[0,0.5],[1,0.5]];portConstraint=eastwest;rotatable=0;whiteSpace=wrap;html=1;fontColor=#ffffff;" parent="AdRa6NuN1TQCRi0MgPPj-14" vertex="1">
          <mxGeometry y="120" width="140" height="30" as="geometry" />
        </mxCell>
        <mxCell id="AdRa6NuN1TQCRi0MgPPj-20" value="age" style="text;strokeColor=#005700;fillColor=#008a00;align=left;verticalAlign=middle;spacingLeft=4;spacingRight=4;overflow=hidden;points=[[0,0.5],[1,0.5]];portConstraint=eastwest;rotatable=0;whiteSpace=wrap;html=1;fontColor=#ffffff;" parent="AdRa6NuN1TQCRi0MgPPj-14" vertex="1">
          <mxGeometry y="150" width="140" height="30" as="geometry" />
        </mxCell>
        <mxCell id="AdRa6NuN1TQCRi0MgPPj-19" value="location" style="text;strokeColor=#005700;fillColor=#008a00;align=left;verticalAlign=middle;spacingLeft=4;spacingRight=4;overflow=hidden;points=[[0,0.5],[1,0.5]];portConstraint=eastwest;rotatable=0;whiteSpace=wrap;html=1;fontColor=#ffffff;" parent="AdRa6NuN1TQCRi0MgPPj-14" vertex="1">
          <mxGeometry y="180" width="140" height="30" as="geometry" />
        </mxCell>
        <mxCell id="AdRa6NuN1TQCRi0MgPPj-18" value="currentOwner" style="text;strokeColor=#C73500;fillColor=#fa6800;align=left;verticalAlign=middle;spacingLeft=4;spacingRight=4;overflow=hidden;points=[[0,0.5],[1,0.5]];portConstraint=eastwest;rotatable=0;whiteSpace=wrap;html=1;fontColor=#FFFFFF;" parent="AdRa6NuN1TQCRi0MgPPj-14" vertex="1">
          <mxGeometry y="210" width="140" height="30" as="geometry" />
        </mxCell>
        <mxCell id="xWQlsnRgKybAR5OPVelj-19" value="posts" style="text;strokeColor=#A50040;fillColor=#d80073;align=left;verticalAlign=middle;spacingLeft=4;spacingRight=4;overflow=hidden;points=[[0,0.5],[1,0.5]];portConstraint=eastwest;rotatable=0;whiteSpace=wrap;html=1;fontColor=#ffffff;" parent="AdRa6NuN1TQCRi0MgPPj-14" vertex="1">
          <mxGeometry y="240" width="140" height="30" as="geometry" />
        </mxCell>
        <mxCell id="NabJ1j5PiPljuUzlyFTk-1" value="Sex" style="text;strokeColor=#005700;fillColor=#008a00;align=left;verticalAlign=middle;spacingLeft=4;spacingRight=4;overflow=hidden;points=[[0,0.5],[1,0.5]];portConstraint=eastwest;rotatable=0;whiteSpace=wrap;html=1;fontColor=#ffffff;" parent="AdRa6NuN1TQCRi0MgPPj-14" vertex="1">
          <mxGeometry y="270" width="140" height="30" as="geometry" />
        </mxCell>
        <mxCell id="xWQlsnRgKybAR5OPVelj-2" value="Post (posts)" style="swimlane;fontStyle=0;childLayout=stackLayout;horizontal=1;startSize=30;horizontalStack=0;resizeParent=1;resizeParentMax=0;resizeLast=0;collapsible=1;marginBottom=0;whiteSpace=wrap;html=1;fillColor=#d80073;strokeColor=#A50040;fontColor=#ffffff;" parent="AdRa6NuN1TQCRi0MgPPj-2" vertex="1">
          <mxGeometry x="80" y="354" width="140" height="210" as="geometry" />
        </mxCell>
        <mxCell id="xWQlsnRgKybAR5OPVelj-3" value="id" style="text;strokeColor=#A50040;fillColor=#d80073;align=left;verticalAlign=middle;spacingLeft=4;spacingRight=4;overflow=hidden;points=[[0,0.5],[1,0.5]];portConstraint=eastwest;rotatable=0;whiteSpace=wrap;html=1;fontColor=#ffffff;" parent="xWQlsnRgKybAR5OPVelj-2" vertex="1">
          <mxGeometry y="30" width="140" height="30" as="geometry" />
        </mxCell>
        <mxCell id="xWQlsnRgKybAR5OPVelj-6" value="title" style="text;strokeColor=#A50040;fillColor=#d80073;align=left;verticalAlign=middle;spacingLeft=4;spacingRight=4;overflow=hidden;points=[[0,0.5],[1,0.5]];portConstraint=eastwest;rotatable=0;whiteSpace=wrap;html=1;fontColor=#ffffff;" parent="xWQlsnRgKybAR5OPVelj-2" vertex="1">
          <mxGeometry y="60" width="140" height="30" as="geometry" />
        </mxCell>
        <mxCell id="xWQlsnRgKybAR5OPVelj-4" value="user" style="text;strokeColor=#C73500;fillColor=#fa6800;align=left;verticalAlign=middle;spacingLeft=4;spacingRight=4;overflow=hidden;points=[[0,0.5],[1,0.5]];portConstraint=eastwest;rotatable=0;whiteSpace=wrap;html=1;fontColor=#FFFFFF;" parent="xWQlsnRgKybAR5OPVelj-2" vertex="1">
          <mxGeometry y="90" width="140" height="30" as="geometry" />
        </mxCell>
        <mxCell id="xWQlsnRgKybAR5OPVelj-5" value="location" style="text;strokeColor=#A50040;fillColor=#d80073;align=left;verticalAlign=middle;spacingLeft=4;spacingRight=4;overflow=hidden;points=[[0,0.5],[1,0.5]];portConstraint=eastwest;rotatable=0;whiteSpace=wrap;html=1;fontColor=#ffffff;" parent="xWQlsnRgKybAR5OPVelj-2" vertex="1">
          <mxGeometry y="120" width="140" height="30" as="geometry" />
        </mxCell>
        <mxCell id="xWQlsnRgKybAR5OPVelj-7" value="text" style="text;strokeColor=#A50040;fillColor=#d80073;align=left;verticalAlign=middle;spacingLeft=4;spacingRight=4;overflow=hidden;points=[[0,0.5],[1,0.5]];portConstraint=eastwest;rotatable=0;whiteSpace=wrap;html=1;fontColor=#ffffff;" parent="xWQlsnRgKybAR5OPVelj-2" vertex="1">
          <mxGeometry y="150" width="140" height="30" as="geometry" />
        </mxCell>
        <mxCell id="xWQlsnRgKybAR5OPVelj-8" value="animal(s)" style="text;strokeColor=#005700;fillColor=#008a00;align=left;verticalAlign=middle;spacingLeft=4;spacingRight=4;overflow=hidden;points=[[0,0.5],[1,0.5]];portConstraint=eastwest;rotatable=0;whiteSpace=wrap;html=1;fontColor=#ffffff;" parent="xWQlsnRgKybAR5OPVelj-2" vertex="1">
          <mxGeometry y="180" width="140" height="30" as="geometry" />
        </mxCell>
        <mxCell id="AdRa6NuN1TQCRi0MgPPj-22" value="Message (messages)" style="swimlane;fontStyle=0;childLayout=stackLayout;horizontal=1;startSize=30;horizontalStack=0;resizeParent=1;resizeParentMax=0;resizeLast=0;collapsible=1;marginBottom=0;whiteSpace=wrap;html=1;fillColor=#1ba1e2;strokeColor=#006EAF;fontColor=#ffffff;" parent="AdRa6NuN1TQCRi0MgPPj-2" vertex="1">
          <mxGeometry x="440" y="371" width="140" height="150" as="geometry" />
        </mxCell>
        <mxCell id="AdRa6NuN1TQCRi0MgPPj-23" value="id" style="text;strokeColor=#006EAF;fillColor=#1ba1e2;align=left;verticalAlign=middle;spacingLeft=4;spacingRight=4;overflow=hidden;points=[[0,0.5],[1,0.5]];portConstraint=eastwest;rotatable=0;whiteSpace=wrap;html=1;fontColor=#ffffff;" parent="AdRa6NuN1TQCRi0MgPPj-22" vertex="1">
          <mxGeometry y="30" width="140" height="30" as="geometry" />
        </mxCell>
        <mxCell id="AdRa6NuN1TQCRi0MgPPj-24" value="sender" style="text;strokeColor=#C73500;fillColor=#fa6800;align=left;verticalAlign=middle;spacingLeft=4;spacingRight=4;overflow=hidden;points=[[0,0.5],[1,0.5]];portConstraint=eastwest;rotatable=0;whiteSpace=wrap;html=1;fontColor=#FFFFFF;" parent="AdRa6NuN1TQCRi0MgPPj-22" vertex="1">
          <mxGeometry y="60" width="140" height="30" as="geometry" />
        </mxCell>
        <mxCell id="AdRa6NuN1TQCRi0MgPPj-26" value="receiver" style="text;strokeColor=#C73500;fillColor=#fa6800;align=left;verticalAlign=middle;spacingLeft=4;spacingRight=4;overflow=hidden;points=[[0,0.5],[1,0.5]];portConstraint=eastwest;rotatable=0;whiteSpace=wrap;html=1;fontColor=#FFFFFF;" parent="AdRa6NuN1TQCRi0MgPPj-22" vertex="1">
          <mxGeometry y="90" width="140" height="30" as="geometry" />
        </mxCell>
        <mxCell id="AdRa6NuN1TQCRi0MgPPj-27" value="messageBody" style="text;strokeColor=#006EAF;fillColor=#1ba1e2;align=left;verticalAlign=middle;spacingLeft=4;spacingRight=4;overflow=hidden;points=[[0,0.5],[1,0.5]];portConstraint=eastwest;rotatable=0;whiteSpace=wrap;html=1;fontColor=#ffffff;" parent="AdRa6NuN1TQCRi0MgPPj-22" vertex="1">
          <mxGeometry y="120" width="140" height="30" as="geometry" />
        </mxCell>
        <mxCell id="9A2f1Cr-HDYLRXTjJS4K-17" style="edgeStyle=orthogonalEdgeStyle;rounded=0;orthogonalLoop=1;jettySize=auto;html=1;entryX=0;entryY=0.5;entryDx=0;entryDy=0;fillColor=#008a00;strokeColor=#005700;strokeWidth=2;" edge="1" parent="AdRa6NuN1TQCRi0MgPPj-2" source="xWQlsnRgKybAR5OPVelj-9" target="AdRa6NuN1TQCRi0MgPPj-15">
          <mxGeometry relative="1" as="geometry" />
        </mxCell>
        <mxCell id="9A2f1Cr-HDYLRXTjJS4K-18" style="edgeStyle=orthogonalEdgeStyle;rounded=0;orthogonalLoop=1;jettySize=auto;html=1;entryX=1;entryY=0.5;entryDx=0;entryDy=0;fillColor=#d80073;strokeColor=#A50040;strokeWidth=2;" edge="1" parent="AdRa6NuN1TQCRi0MgPPj-2" source="xWQlsnRgKybAR5OPVelj-18" target="xWQlsnRgKybAR5OPVelj-4">
          <mxGeometry relative="1" as="geometry">
            <Array as="points">
              <mxPoint x="60" y="265" />
              <mxPoint x="60" y="337" />
              <mxPoint x="240" y="337" />
              <mxPoint x="240" y="459" />
            </Array>
          </mxGeometry>
        </mxCell>
        <mxCell id="9A2f1Cr-HDYLRXTjJS4K-19" style="edgeStyle=orthogonalEdgeStyle;rounded=0;orthogonalLoop=1;jettySize=auto;html=1;entryX=0;entryY=0.5;entryDx=0;entryDy=0;fillColor=#1ba1e2;strokeColor=#006EAF;strokeWidth=2;" edge="1" parent="AdRa6NuN1TQCRi0MgPPj-2" source="xWQlsnRgKybAR5OPVelj-17" target="AdRa6NuN1TQCRi0MgPPj-26">
          <mxGeometry relative="1" as="geometry" />
        </mxCell>
        <mxCell id="9A2f1Cr-HDYLRXTjJS4K-20" style="edgeStyle=orthogonalEdgeStyle;rounded=0;orthogonalLoop=1;jettySize=auto;html=1;entryX=0;entryY=0.5;entryDx=0;entryDy=0;fillColor=#1ba1e2;strokeColor=#006EAF;strokeWidth=2;" edge="1" parent="AdRa6NuN1TQCRi0MgPPj-2" source="xWQlsnRgKybAR5OPVelj-17" target="AdRa6NuN1TQCRi0MgPPj-22">
          <mxGeometry relative="1" as="geometry" />
        </mxCell>
        <mxCell id="9A2f1Cr-HDYLRXTjJS4K-21" style="edgeStyle=orthogonalEdgeStyle;rounded=0;orthogonalLoop=1;jettySize=auto;html=1;entryX=1;entryY=0.5;entryDx=0;entryDy=0;fillColor=#d80073;strokeColor=#A50040;strokeWidth=2;" edge="1" parent="AdRa6NuN1TQCRi0MgPPj-2" source="xWQlsnRgKybAR5OPVelj-19" target="xWQlsnRgKybAR5OPVelj-8">
          <mxGeometry relative="1" as="geometry">
            <Array as="points">
              <mxPoint x="305" y="295" />
              <mxPoint x="305" y="549" />
            </Array>
          </mxGeometry>
        </mxCell>
        <mxCell id="9A2f1Cr-HDYLRXTjJS4K-23" value="ONE-TO-MANY" style="text;html=1;strokeColor=none;fillColor=none;align=center;verticalAlign=middle;whiteSpace=wrap;rounded=0;fontColor=#FFFFFF;" vertex="1" parent="AdRa6NuN1TQCRi0MgPPj-2">
          <mxGeometry x="337" y="416" width="94" height="30" as="geometry" />
        </mxCell>
        <mxCell id="9A2f1Cr-HDYLRXTjJS4K-25" value="MANY-TO-MANY" style="text;html=1;strokeColor=none;fillColor=none;align=center;verticalAlign=middle;whiteSpace=wrap;rounded=0;fontColor=#FFFFFF;" vertex="1" parent="AdRa6NuN1TQCRi0MgPPj-2">
          <mxGeometry x="337" y="302" width="97" height="30" as="geometry" />
        </mxCell>
        <mxCell id="9A2f1Cr-HDYLRXTjJS4K-26" value="ONE-TO-MANY" style="text;html=1;strokeColor=none;fillColor=none;align=center;verticalAlign=middle;whiteSpace=wrap;rounded=0;fontColor=#FFFFFF;" vertex="1" parent="AdRa6NuN1TQCRi0MgPPj-2">
          <mxGeometry x="103.5" y="309" width="93" height="30" as="geometry" />
        </mxCell>
        <mxCell id="9A2f1Cr-HDYLRXTjJS4K-27" value="ONE-TO-MANY" style="text;html=1;strokeColor=none;fillColor=none;align=center;verticalAlign=middle;whiteSpace=wrap;rounded=0;fontColor=#FFFFFF;" vertex="1" parent="AdRa6NuN1TQCRi0MgPPj-2">
          <mxGeometry x="333" y="56" width="93" height="30" as="geometry" />
        </mxCell>
        <mxCell id="9A2f1Cr-HDYLRXTjJS4K-28" style="edgeStyle=orthogonalEdgeStyle;rounded=0;orthogonalLoop=1;jettySize=auto;html=1;entryX=1;entryY=0.5;entryDx=0;entryDy=0;fillColor=#fa6800;strokeColor=#C73500;strokeWidth=2;" edge="1" parent="AdRa6NuN1TQCRi0MgPPj-2" source="AdRa6NuN1TQCRi0MgPPj-18" target="9A2f1Cr-HDYLRXTjJS4K-1">
          <mxGeometry relative="1" as="geometry">
            <Array as="points">
              <mxPoint x="313" y="265" />
              <mxPoint x="313" y="205" />
            </Array>
          </mxGeometry>
        </mxCell>
        <mxCell id="9A2f1Cr-HDYLRXTjJS4K-29" value="ONE-TO-MANY" style="text;html=1;strokeColor=none;fillColor=none;align=center;verticalAlign=middle;whiteSpace=wrap;rounded=0;fontColor=#FFFFFF;" vertex="1" parent="AdRa6NuN1TQCRi0MgPPj-2">
          <mxGeometry x="231" y="178" width="90" height="30" as="geometry" />
        </mxCell>
        <mxCell id="rTGL_3dFPh7_Ok8thwQr-14" style="edgeStyle=orthogonalEdgeStyle;rounded=0;orthogonalLoop=1;jettySize=auto;html=1;entryX=0.5;entryY=0;entryDx=0;entryDy=0;fillColor=#dae8fc;strokeColor=#6c8ebf;strokeWidth=2;" parent="1" source="_cTKvnzmP2ruFUYqaLfK-1" target="1Y42PiByceGQKW-uyaXE-60" edge="1">
          <mxGeometry relative="1" as="geometry" />
        </mxCell>
        <mxCell id="_cTKvnzmP2ruFUYqaLfK-1" value="VIEWS AND ROUTES:" style="swimlane;whiteSpace=wrap;html=1;fillColor=#f8cecc;strokeColor=#b85450;strokeWidth=3;" parent="1" vertex="1">
          <mxGeometry x="699" y="-786" width="699" height="328" as="geometry">
            <mxRectangle x="9" y="-199" width="156" height="26" as="alternateBounds" />
          </mxGeometry>
        </mxCell>
        <mxCell id="2MYl5ndHaeksl3x8lS-z-1" value="&quot;/login&quot;" style="text;html=1;strokeColor=none;fillColor=none;align=center;verticalAlign=middle;whiteSpace=wrap;rounded=0;fontColor=#00CC00;fontSize=15;" parent="_cTKvnzmP2ruFUYqaLfK-1" vertex="1">
          <mxGeometry x="20" y="33" width="61" height="30" as="geometry" />
        </mxCell>
        <mxCell id="2MYl5ndHaeksl3x8lS-z-2" value="" style="endArrow=classic;html=1;rounded=0;fillColor=#dae8fc;strokeColor=#6c8ebf;strokeWidth=2;" parent="_cTKvnzmP2ruFUYqaLfK-1" edge="1">
          <mxGeometry width="50" height="50" relative="1" as="geometry">
            <mxPoint x="91" y="47.5" as="sourcePoint" />
            <mxPoint x="164" y="47.5" as="targetPoint" />
            <Array as="points" />
          </mxGeometry>
        </mxCell>
        <mxCell id="2MYl5ndHaeksl3x8lS-z-3" value="Login" style="text;html=1;strokeColor=none;fillColor=none;align=center;verticalAlign=middle;whiteSpace=wrap;rounded=0;fontColor=#FF8000;fontSize=15;" parent="_cTKvnzmP2ruFUYqaLfK-1" vertex="1">
          <mxGeometry x="174" y="33" width="60" height="30" as="geometry" />
        </mxCell>
        <mxCell id="2MYl5ndHaeksl3x8lS-z-4" value="" style="endArrow=classic;html=1;rounded=0;fillColor=#dae8fc;strokeColor=#6c8ebf;strokeWidth=2;" parent="_cTKvnzmP2ruFUYqaLfK-1" edge="1">
          <mxGeometry width="50" height="50" relative="1" as="geometry">
            <mxPoint x="242" y="47" as="sourcePoint" />
            <mxPoint x="307" y="47" as="targetPoint" />
          </mxGeometry>
        </mxCell>
        <mxCell id="2MYl5ndHaeksl3x8lS-z-5" value="POST" style="text;html=1;strokeColor=none;fillColor=none;align=center;verticalAlign=middle;whiteSpace=wrap;rounded=0;fontColor=#CC99FF;fontSize=15;" parent="_cTKvnzmP2ruFUYqaLfK-1" vertex="1">
          <mxGeometry x="323" y="33" width="60" height="30" as="geometry" />
        </mxCell>
        <mxCell id="2MYl5ndHaeksl3x8lS-z-8" value="" style="endArrow=classic;html=1;rounded=0;strokeWidth=2;fillColor=#dae8fc;strokeColor=#6c8ebf;" parent="_cTKvnzmP2ruFUYqaLfK-1" edge="1">
          <mxGeometry width="50" height="50" relative="1" as="geometry">
            <mxPoint x="383" y="47" as="sourcePoint" />
            <mxPoint x="449" y="47" as="targetPoint" />
          </mxGeometry>
        </mxCell>
        <mxCell id="2MYl5ndHaeksl3x8lS-z-9" value="User" style="text;html=1;strokeColor=none;fillColor=none;align=center;verticalAlign=middle;whiteSpace=wrap;rounded=0;fontColor=#007FFF;fontSize=15;" parent="_cTKvnzmP2ruFUYqaLfK-1" vertex="1">
          <mxGeometry x="452" y="33" width="60" height="30" as="geometry" />
        </mxCell>
        <mxCell id="2MYl5ndHaeksl3x8lS-z-11" value="&quot;/signup&quot;" style="text;html=1;strokeColor=none;fillColor=none;align=center;verticalAlign=middle;whiteSpace=wrap;rounded=0;fontColor=#00CC00;fontSize=15;" parent="_cTKvnzmP2ruFUYqaLfK-1" vertex="1">
          <mxGeometry x="21" y="74" width="60" height="30" as="geometry" />
        </mxCell>
        <mxCell id="2MYl5ndHaeksl3x8lS-z-12" value="&quot;/messages&quot;" style="text;html=1;strokeColor=none;fillColor=none;align=center;verticalAlign=middle;whiteSpace=wrap;rounded=0;fontSize=15;fontColor=#00CC00;" parent="_cTKvnzmP2ruFUYqaLfK-1" vertex="1">
          <mxGeometry x="21" y="117.5" width="60" height="30" as="geometry" />
        </mxCell>
        <mxCell id="2MYl5ndHaeksl3x8lS-z-13" value="&quot;/posts&quot;" style="text;html=1;strokeColor=none;fillColor=none;align=center;verticalAlign=middle;whiteSpace=wrap;rounded=0;fontSize=15;fontColor=#00CC00;" parent="_cTKvnzmP2ruFUYqaLfK-1" vertex="1">
          <mxGeometry x="20" y="155" width="60" height="30" as="geometry" />
        </mxCell>
        <mxCell id="2MYl5ndHaeksl3x8lS-z-14" value="&quot;/animals&quot;" style="text;html=1;strokeColor=none;fillColor=none;align=center;verticalAlign=middle;whiteSpace=wrap;rounded=0;fontSize=15;fontColor=#00CC00;" parent="_cTKvnzmP2ruFUYqaLfK-1" vertex="1">
          <mxGeometry x="20" y="193" width="60" height="30" as="geometry" />
        </mxCell>
        <mxCell id="2MYl5ndHaeksl3x8lS-z-15" value="&quot;/tagged_animals&quot;" style="text;html=1;strokeColor=none;fillColor=none;align=center;verticalAlign=middle;whiteSpace=wrap;rounded=0;fontSize=15;fontColor=#00CC00;" parent="_cTKvnzmP2ruFUYqaLfK-1" vertex="1">
          <mxGeometry x="35" y="231" width="60" height="30" as="geometry" />
        </mxCell>
        <mxCell id="2MYl5ndHaeksl3x8lS-z-17" value="" style="endArrow=classic;html=1;rounded=0;fillColor=#dae8fc;strokeColor=#6c8ebf;strokeWidth=2;" parent="_cTKvnzmP2ruFUYqaLfK-1" edge="1">
          <mxGeometry width="50" height="50" relative="1" as="geometry">
            <mxPoint x="90" y="88.5" as="sourcePoint" />
            <mxPoint x="163" y="88.5" as="targetPoint" />
            <Array as="points" />
          </mxGeometry>
        </mxCell>
        <mxCell id="2MYl5ndHaeksl3x8lS-z-18" value="" style="endArrow=classic;html=1;rounded=0;fillColor=#dae8fc;strokeColor=#6c8ebf;strokeWidth=2;" parent="_cTKvnzmP2ruFUYqaLfK-1" edge="1">
          <mxGeometry width="50" height="50" relative="1" as="geometry">
            <mxPoint x="101" y="132" as="sourcePoint" />
            <mxPoint x="174" y="132" as="targetPoint" />
            <Array as="points" />
          </mxGeometry>
        </mxCell>
        <mxCell id="2MYl5ndHaeksl3x8lS-z-19" value="" style="endArrow=classic;html=1;rounded=0;fillColor=#dae8fc;strokeColor=#6c8ebf;strokeWidth=2;" parent="_cTKvnzmP2ruFUYqaLfK-1" edge="1">
          <mxGeometry width="50" height="50" relative="1" as="geometry">
            <mxPoint x="88" y="169.5" as="sourcePoint" />
            <mxPoint x="161" y="169.5" as="targetPoint" />
            <Array as="points" />
          </mxGeometry>
        </mxCell>
        <mxCell id="2MYl5ndHaeksl3x8lS-z-20" value="" style="endArrow=classic;html=1;rounded=0;fillColor=#dae8fc;strokeColor=#6c8ebf;strokeWidth=2;" parent="_cTKvnzmP2ruFUYqaLfK-1" edge="1">
          <mxGeometry width="50" height="50" relative="1" as="geometry">
            <mxPoint x="95" y="207.5" as="sourcePoint" />
            <mxPoint x="168" y="207.5" as="targetPoint" />
            <Array as="points" />
          </mxGeometry>
        </mxCell>
        <mxCell id="2MYl5ndHaeksl3x8lS-z-21" value="" style="endArrow=classic;html=1;rounded=0;fillColor=#dae8fc;strokeColor=#6c8ebf;strokeWidth=2;" parent="_cTKvnzmP2ruFUYqaLfK-1" edge="1">
          <mxGeometry width="50" height="50" relative="1" as="geometry">
            <mxPoint x="134" y="245.5" as="sourcePoint" />
            <mxPoint x="207" y="245.5" as="targetPoint" />
            <Array as="points" />
          </mxGeometry>
        </mxCell>
        <mxCell id="2MYl5ndHaeksl3x8lS-z-40" value="Signup" style="text;html=1;strokeColor=none;fillColor=none;align=center;verticalAlign=middle;whiteSpace=wrap;rounded=0;fontColor=#FF8000;fontSize=15;" parent="_cTKvnzmP2ruFUYqaLfK-1" vertex="1">
          <mxGeometry x="177" y="74" width="60" height="30" as="geometry" />
        </mxCell>
        <mxCell id="2MYl5ndHaeksl3x8lS-z-41" value="Messages" style="text;html=1;strokeColor=none;fillColor=none;align=center;verticalAlign=middle;whiteSpace=wrap;rounded=0;fontColor=#FF8000;fontSize=15;" parent="_cTKvnzmP2ruFUYqaLfK-1" vertex="1">
          <mxGeometry x="192" y="117.5" width="60" height="30" as="geometry" />
        </mxCell>
        <mxCell id="2MYl5ndHaeksl3x8lS-z-42" value="&quot;/check_session&quot;" style="text;html=1;strokeColor=none;fillColor=none;align=center;verticalAlign=middle;whiteSpace=wrap;rounded=0;fontSize=15;fontColor=#00CC00;" parent="_cTKvnzmP2ruFUYqaLfK-1" vertex="1">
          <mxGeometry x="32" y="269" width="60" height="30" as="geometry" />
        </mxCell>
        <mxCell id="2MYl5ndHaeksl3x8lS-z-43" value="" style="endArrow=classic;html=1;rounded=0;fillColor=#dae8fc;strokeColor=#6c8ebf;strokeWidth=2;" parent="_cTKvnzmP2ruFUYqaLfK-1" edge="1">
          <mxGeometry width="50" height="50" relative="1" as="geometry">
            <mxPoint x="128" y="283.5" as="sourcePoint" />
            <mxPoint x="201" y="283.5" as="targetPoint" />
            <Array as="points" />
          </mxGeometry>
        </mxCell>
        <mxCell id="2MYl5ndHaeksl3x8lS-z-66" value="Posts" style="text;html=1;strokeColor=none;fillColor=none;align=center;verticalAlign=middle;whiteSpace=wrap;rounded=0;fontColor=#FF8000;fontSize=15;" parent="_cTKvnzmP2ruFUYqaLfK-1" vertex="1">
          <mxGeometry x="174" y="155" width="60" height="30" as="geometry" />
        </mxCell>
        <mxCell id="2MYl5ndHaeksl3x8lS-z-67" value="Animals" style="text;html=1;strokeColor=none;fillColor=none;align=center;verticalAlign=middle;whiteSpace=wrap;rounded=0;fontColor=#FF8000;fontSize=15;" parent="_cTKvnzmP2ruFUYqaLfK-1" vertex="1">
          <mxGeometry x="179" y="193" width="60" height="30" as="geometry" />
        </mxCell>
        <mxCell id="2MYl5ndHaeksl3x8lS-z-68" value="TaggedAnimals" style="text;html=1;strokeColor=none;fillColor=none;align=center;verticalAlign=middle;whiteSpace=wrap;rounded=0;fontColor=#FF8000;fontSize=15;" parent="_cTKvnzmP2ruFUYqaLfK-1" vertex="1">
          <mxGeometry x="237" y="231" width="60" height="30" as="geometry" />
        </mxCell>
        <mxCell id="2MYl5ndHaeksl3x8lS-z-69" value="CheckSession" style="text;html=1;strokeColor=none;fillColor=none;align=center;verticalAlign=middle;whiteSpace=wrap;rounded=0;fontColor=#FF8000;fontSize=15;" parent="_cTKvnzmP2ruFUYqaLfK-1" vertex="1">
          <mxGeometry x="232" y="269" width="60" height="30" as="geometry" />
        </mxCell>
        <mxCell id="2MYl5ndHaeksl3x8lS-z-70" value="" style="endArrow=classic;html=1;rounded=0;fillColor=#dae8fc;strokeColor=#6c8ebf;strokeWidth=2;" parent="_cTKvnzmP2ruFUYqaLfK-1" edge="1">
          <mxGeometry width="50" height="50" relative="1" as="geometry">
            <mxPoint x="239" y="88.5" as="sourcePoint" />
            <mxPoint x="304" y="88.5" as="targetPoint" />
          </mxGeometry>
        </mxCell>
        <mxCell id="2MYl5ndHaeksl3x8lS-z-71" value="" style="endArrow=classic;html=1;rounded=0;fillColor=#dae8fc;strokeColor=#6c8ebf;strokeWidth=2;" parent="_cTKvnzmP2ruFUYqaLfK-1" edge="1">
          <mxGeometry width="50" height="50" relative="1" as="geometry">
            <mxPoint x="264" y="132" as="sourcePoint" />
            <mxPoint x="329" y="132" as="targetPoint" />
          </mxGeometry>
        </mxCell>
        <mxCell id="2MYl5ndHaeksl3x8lS-z-72" value="" style="endArrow=classic;html=1;rounded=0;fillColor=#dae8fc;strokeColor=#6c8ebf;strokeWidth=2;" parent="_cTKvnzmP2ruFUYqaLfK-1" edge="1">
          <mxGeometry width="50" height="50" relative="1" as="geometry">
            <mxPoint x="237" y="169.5" as="sourcePoint" />
            <mxPoint x="302" y="169.5" as="targetPoint" />
          </mxGeometry>
        </mxCell>
        <mxCell id="2MYl5ndHaeksl3x8lS-z-73" value="" style="endArrow=classic;html=1;rounded=0;fillColor=#dae8fc;strokeColor=#6c8ebf;strokeWidth=2;" parent="_cTKvnzmP2ruFUYqaLfK-1" edge="1">
          <mxGeometry width="50" height="50" relative="1" as="geometry">
            <mxPoint x="246" y="207.5" as="sourcePoint" />
            <mxPoint x="311" y="207.5" as="targetPoint" />
          </mxGeometry>
        </mxCell>
        <mxCell id="2MYl5ndHaeksl3x8lS-z-74" value="" style="endArrow=classic;html=1;rounded=0;fillColor=#dae8fc;strokeColor=#6c8ebf;strokeWidth=2;" parent="_cTKvnzmP2ruFUYqaLfK-1" edge="1">
          <mxGeometry width="50" height="50" relative="1" as="geometry">
            <mxPoint x="327" y="245.5" as="sourcePoint" />
            <mxPoint x="392" y="245.5" as="targetPoint" />
          </mxGeometry>
        </mxCell>
        <mxCell id="2MYl5ndHaeksl3x8lS-z-75" value="" style="endArrow=classic;html=1;rounded=0;fillColor=#dae8fc;strokeColor=#6c8ebf;strokeWidth=2;" parent="_cTKvnzmP2ruFUYqaLfK-1" edge="1">
          <mxGeometry width="50" height="50" relative="1" as="geometry">
            <mxPoint x="315" y="283.5" as="sourcePoint" />
            <mxPoint x="380" y="283.5" as="targetPoint" />
          </mxGeometry>
        </mxCell>
        <mxCell id="2MYl5ndHaeksl3x8lS-z-76" value="POST" style="text;html=1;strokeColor=none;fillColor=none;align=center;verticalAlign=middle;whiteSpace=wrap;rounded=0;fontColor=#CC99FF;fontSize=15;" parent="_cTKvnzmP2ruFUYqaLfK-1" vertex="1">
          <mxGeometry x="307" y="74" width="60" height="30" as="geometry" />
        </mxCell>
        <mxCell id="2MYl5ndHaeksl3x8lS-z-77" value="GET, POST, PATCH, DELETE" style="text;html=1;strokeColor=none;fillColor=none;align=center;verticalAlign=middle;whiteSpace=wrap;rounded=0;fontColor=#CC99FF;fontSize=15;" parent="_cTKvnzmP2ruFUYqaLfK-1" vertex="1">
          <mxGeometry x="327" y="117.5" width="227" height="30" as="geometry" />
        </mxCell>
        <mxCell id="2MYl5ndHaeksl3x8lS-z-78" value="GET, POST, PATCH, DELETE" style="text;html=1;strokeColor=none;fillColor=none;align=center;verticalAlign=middle;whiteSpace=wrap;rounded=0;fontColor=#CC99FF;fontSize=15;" parent="_cTKvnzmP2ruFUYqaLfK-1" vertex="1">
          <mxGeometry x="302" y="155" width="231" height="30" as="geometry" />
        </mxCell>
        <mxCell id="2MYl5ndHaeksl3x8lS-z-79" value="GET, POST, PATCH, DELETE" style="text;html=1;strokeColor=none;fillColor=none;align=center;verticalAlign=middle;whiteSpace=wrap;rounded=0;fontColor=#CC99FF;fontSize=15;" parent="_cTKvnzmP2ruFUYqaLfK-1" vertex="1">
          <mxGeometry x="318" y="193" width="208" height="30" as="geometry" />
        </mxCell>
        <mxCell id="1Y42PiByceGQKW-uyaXE-1" value="GET" style="text;html=1;strokeColor=none;fillColor=none;align=center;verticalAlign=middle;whiteSpace=wrap;rounded=0;fontColor=#CC99FF;fontSize=15;" parent="_cTKvnzmP2ruFUYqaLfK-1" vertex="1">
          <mxGeometry x="377" y="269" width="60" height="30" as="geometry" />
        </mxCell>
        <mxCell id="1Y42PiByceGQKW-uyaXE-2" value="GET, PATCH" style="text;html=1;strokeColor=none;fillColor=none;align=center;verticalAlign=middle;whiteSpace=wrap;rounded=0;fontColor=#CC99FF;fontSize=15;" parent="_cTKvnzmP2ruFUYqaLfK-1" vertex="1">
          <mxGeometry x="390" y="231" width="101" height="30" as="geometry" />
        </mxCell>
        <mxCell id="1Y42PiByceGQKW-uyaXE-3" value="" style="endArrow=classic;html=1;rounded=0;strokeWidth=2;fillColor=#dae8fc;strokeColor=#6c8ebf;" parent="_cTKvnzmP2ruFUYqaLfK-1" edge="1">
          <mxGeometry width="50" height="50" relative="1" as="geometry">
            <mxPoint x="362" y="88.5" as="sourcePoint" />
            <mxPoint x="428" y="88.5" as="targetPoint" />
          </mxGeometry>
        </mxCell>
        <mxCell id="1Y42PiByceGQKW-uyaXE-4" value="" style="endArrow=classic;html=1;rounded=0;strokeWidth=2;fillColor=#dae8fc;strokeColor=#6c8ebf;" parent="_cTKvnzmP2ruFUYqaLfK-1" edge="1">
          <mxGeometry width="50" height="50" relative="1" as="geometry">
            <mxPoint x="547" y="132" as="sourcePoint" />
            <mxPoint x="613" y="132" as="targetPoint" />
          </mxGeometry>
        </mxCell>
        <mxCell id="1Y42PiByceGQKW-uyaXE-5" value="" style="endArrow=classic;html=1;rounded=0;strokeWidth=2;fillColor=#dae8fc;strokeColor=#6c8ebf;" parent="_cTKvnzmP2ruFUYqaLfK-1" edge="1">
          <mxGeometry width="50" height="50" relative="1" as="geometry">
            <mxPoint x="526" y="169.41" as="sourcePoint" />
            <mxPoint x="592" y="169.41" as="targetPoint" />
          </mxGeometry>
        </mxCell>
        <mxCell id="1Y42PiByceGQKW-uyaXE-6" value="" style="endArrow=classic;html=1;rounded=0;strokeWidth=2;fillColor=#dae8fc;strokeColor=#6c8ebf;" parent="_cTKvnzmP2ruFUYqaLfK-1" edge="1">
          <mxGeometry width="50" height="50" relative="1" as="geometry">
            <mxPoint x="526" y="207.41" as="sourcePoint" />
            <mxPoint x="592" y="207.41" as="targetPoint" />
          </mxGeometry>
        </mxCell>
        <mxCell id="1Y42PiByceGQKW-uyaXE-7" value="" style="endArrow=classic;html=1;rounded=0;strokeWidth=2;fillColor=#dae8fc;strokeColor=#6c8ebf;" parent="_cTKvnzmP2ruFUYqaLfK-1" edge="1">
          <mxGeometry width="50" height="50" relative="1" as="geometry">
            <mxPoint x="491" y="245.41" as="sourcePoint" />
            <mxPoint x="557" y="245.41" as="targetPoint" />
          </mxGeometry>
        </mxCell>
        <mxCell id="1Y42PiByceGQKW-uyaXE-8" value="" style="endArrow=classic;html=1;rounded=0;strokeWidth=2;fillColor=#dae8fc;strokeColor=#6c8ebf;" parent="_cTKvnzmP2ruFUYqaLfK-1" edge="1">
          <mxGeometry width="50" height="50" relative="1" as="geometry">
            <mxPoint x="437" y="283.40999999999997" as="sourcePoint" />
            <mxPoint x="503" y="283.40999999999997" as="targetPoint" />
          </mxGeometry>
        </mxCell>
        <mxCell id="1Y42PiByceGQKW-uyaXE-53" value="User" style="text;html=1;strokeColor=none;fillColor=none;align=center;verticalAlign=middle;whiteSpace=wrap;rounded=0;fontColor=#007FFF;fontSize=15;" parent="_cTKvnzmP2ruFUYqaLfK-1" vertex="1">
          <mxGeometry x="437" y="74" width="60" height="30" as="geometry" />
        </mxCell>
        <mxCell id="1Y42PiByceGQKW-uyaXE-54" value="Message" style="text;html=1;strokeColor=none;fillColor=none;align=center;verticalAlign=middle;whiteSpace=wrap;rounded=0;fontColor=#007FFF;fontSize=15;" parent="_cTKvnzmP2ruFUYqaLfK-1" vertex="1">
          <mxGeometry x="629" y="117.5" width="60" height="30" as="geometry" />
        </mxCell>
        <mxCell id="1Y42PiByceGQKW-uyaXE-55" value="Post" style="text;html=1;strokeColor=none;fillColor=none;align=center;verticalAlign=middle;whiteSpace=wrap;rounded=0;fontColor=#007FFF;fontSize=15;" parent="_cTKvnzmP2ruFUYqaLfK-1" vertex="1">
          <mxGeometry x="601" y="155" width="60" height="30" as="geometry" />
        </mxCell>
        <mxCell id="1Y42PiByceGQKW-uyaXE-56" value="Animal" style="text;html=1;strokeColor=none;fillColor=none;align=center;verticalAlign=middle;whiteSpace=wrap;rounded=0;fontColor=#007FFF;fontSize=15;" parent="_cTKvnzmP2ruFUYqaLfK-1" vertex="1">
          <mxGeometry x="601" y="193" width="60" height="30" as="geometry" />
        </mxCell>
        <mxCell id="1Y42PiByceGQKW-uyaXE-58" value="User" style="text;html=1;strokeColor=none;fillColor=none;align=center;verticalAlign=middle;whiteSpace=wrap;rounded=0;fontColor=#007FFF;fontSize=15;" parent="_cTKvnzmP2ruFUYqaLfK-1" vertex="1">
          <mxGeometry x="569" y="231" width="60" height="30" as="geometry" />
        </mxCell>
        <mxCell id="1Y42PiByceGQKW-uyaXE-59" value="User" style="text;html=1;strokeColor=none;fillColor=none;align=center;verticalAlign=middle;whiteSpace=wrap;rounded=0;fontColor=#007FFF;fontSize=15;" parent="_cTKvnzmP2ruFUYqaLfK-1" vertex="1">
          <mxGeometry x="522" y="269" width="60" height="30" as="geometry" />
        </mxCell>
        <mxCell id="1Y42PiByceGQKW-uyaXE-60" value="NEW IMPLEMENTATION IDEAS" style="swimlane;whiteSpace=wrap;html=1;fillColor=#f8cecc;strokeColor=#b85450;strokeWidth=3;fontColor=#000000;startSize=29;" parent="1" vertex="1">
          <mxGeometry x="699" y="-390" width="582" height="315" as="geometry" />
        </mxCell>
        <mxCell id="rTGL_3dFPh7_Ok8thwQr-4" value="&lt;h1&gt;Bootstrap&lt;/h1&gt;&lt;div&gt;Bootstrap is a front-end framework used to make the development process, specifically with CSS and HTML, easier. Bootstrap also makes the application more accessible across different devices. Not everyone has access to a laptop but may have access to a phone. Bootstrap would help make this web application more accessible to mobile users.&lt;br&gt;&lt;/div&gt;" style="text;html=1;strokeColor=none;fillColor=none;spacing=5;spacingTop=-20;whiteSpace=wrap;overflow=hidden;rounded=0;fontColor=#FFFFFF;" parent="1Y42PiByceGQKW-uyaXE-60" vertex="1">
          <mxGeometry x="26" y="32.5" width="190" height="224.5" as="geometry" />
        </mxCell>
        <mxCell id="rTGL_3dFPh7_Ok8thwQr-6" value="&lt;h1&gt;Google Sign-In Option&lt;/h1&gt;&lt;p&gt;Integrating Google sign-in / sign-up can help to keep my users&#39; information more secure, detecting any suspicious activity before I can. Allowing the user an option to use Google sign-in / sign-up also gives users a quicker and easier way to sign-up / sign-in.&lt;br&gt;&lt;/p&gt;" style="text;html=1;strokeColor=none;fillColor=none;spacing=5;spacingTop=-20;whiteSpace=wrap;overflow=hidden;rounded=0;fontColor=#FFFFFF;" parent="1Y42PiByceGQKW-uyaXE-60" vertex="1">
          <mxGeometry x="295" y="32.5" width="263" height="143.5" as="geometry" />
        </mxCell>
        <mxCell id="rTGL_3dFPh7_Ok8thwQr-11" style="edgeStyle=orthogonalEdgeStyle;rounded=0;orthogonalLoop=1;jettySize=auto;html=1;exitX=1;exitY=0.5;exitDx=0;exitDy=0;entryX=0;entryY=0.75;entryDx=0;entryDy=0;strokeWidth=2;fillColor=#dae8fc;strokeColor=#6c8ebf;" parent="1" source="MYKW1UoXWGAR3DtBjXnS-23" target="rTGL_3dFPh7_Ok8thwQr-9" edge="1">
          <mxGeometry relative="1" as="geometry" />
        </mxCell>
        <mxCell id="MYKW1UoXWGAR3DtBjXnS-23" value="THE PROBLEM AND MY SOLUTION" style="swimlane;whiteSpace=wrap;html=1;fillColor=#f8cecc;strokeColor=#b85450;strokeWidth=2;startSize=27;" parent="1" vertex="1">
          <mxGeometry x="-209" y="-1129" width="859" height="316" as="geometry" />
        </mxCell>
        <mxCell id="MYKW1UoXWGAR3DtBjXnS-4" value="ANIMAL ABANDONMENT" style="text;html=1;strokeColor=#b85450;fillColor=#f8cecc;align=center;verticalAlign=middle;whiteSpace=wrap;rounded=1;" parent="MYKW1UoXWGAR3DtBjXnS-23" vertex="1">
          <mxGeometry x="372.47" y="47.5" width="154" height="30" as="geometry" />
        </mxCell>
        <mxCell id="MYKW1UoXWGAR3DtBjXnS-5" value="PROFITING PUPPYMILLS" style="text;html=1;strokeColor=#b85450;fillColor=#f8cecc;align=center;verticalAlign=middle;whiteSpace=wrap;rounded=1;" parent="MYKW1UoXWGAR3DtBjXnS-23" vertex="1">
          <mxGeometry x="374.47" y="91.5" width="150" height="30" as="geometry" />
        </mxCell>
        <mxCell id="rTGL_3dFPh7_Ok8thwQr-8" style="edgeStyle=orthogonalEdgeStyle;rounded=0;orthogonalLoop=1;jettySize=auto;html=1;exitX=0.5;exitY=1;exitDx=0;exitDy=0;entryX=0.5;entryY=0;entryDx=0;entryDy=0;fillColor=#dae8fc;strokeColor=#6c8ebf;strokeWidth=2;" parent="MYKW1UoXWGAR3DtBjXnS-23" source="MYKW1UoXWGAR3DtBjXnS-6" target="rTGL_3dFPh7_Ok8thwQr-7" edge="1">
          <mxGeometry relative="1" as="geometry" />
        </mxCell>
        <mxCell id="MYKW1UoXWGAR3DtBjXnS-6" value="KENNEL AND SHELTER OVERCROWDING" style="text;html=1;strokeColor=#b85450;fillColor=#f8cecc;align=center;verticalAlign=middle;whiteSpace=wrap;rounded=1;" parent="MYKW1UoXWGAR3DtBjXnS-23" vertex="1">
          <mxGeometry x="595.47" y="77.5" width="246" height="30" as="geometry" />
        </mxCell>
        <mxCell id="MYKW1UoXWGAR3DtBjXnS-22" style="edgeStyle=orthogonalEdgeStyle;rounded=0;orthogonalLoop=1;jettySize=auto;html=1;fillColor=#dae8fc;strokeColor=#6c8ebf;strokeWidth=2;" parent="MYKW1UoXWGAR3DtBjXnS-23" source="MYKW1UoXWGAR3DtBjXnS-4" target="MYKW1UoXWGAR3DtBjXnS-6" edge="1">
          <mxGeometry relative="1" as="geometry" />
        </mxCell>
        <mxCell id="MYKW1UoXWGAR3DtBjXnS-21" style="edgeStyle=orthogonalEdgeStyle;rounded=0;orthogonalLoop=1;jettySize=auto;html=1;strokeWidth=2;fillColor=#dae8fc;strokeColor=#6c8ebf;" parent="MYKW1UoXWGAR3DtBjXnS-23" source="MYKW1UoXWGAR3DtBjXnS-5" target="MYKW1UoXWGAR3DtBjXnS-6" edge="1">
          <mxGeometry relative="1" as="geometry" />
        </mxCell>
        <mxCell id="MYKW1UoXWGAR3DtBjXnS-20" style="edgeStyle=orthogonalEdgeStyle;rounded=0;orthogonalLoop=1;jettySize=auto;html=1;entryX=0;entryY=0.5;entryDx=0;entryDy=0;fillColor=#dae8fc;strokeColor=#6c8ebf;strokeWidth=2;" parent="MYKW1UoXWGAR3DtBjXnS-23" source="MYKW1UoXWGAR3DtBjXnS-9" target="MYKW1UoXWGAR3DtBjXnS-5" edge="1">
          <mxGeometry relative="1" as="geometry" />
        </mxCell>
        <mxCell id="MYKW1UoXWGAR3DtBjXnS-27" style="edgeStyle=orthogonalEdgeStyle;rounded=0;orthogonalLoop=1;jettySize=auto;html=1;entryX=1;entryY=0.5;entryDx=0;entryDy=0;fillColor=#d80073;strokeColor=#A50040;strokeWidth=2;" parent="MYKW1UoXWGAR3DtBjXnS-23" source="MYKW1UoXWGAR3DtBjXnS-9" target="MYKW1UoXWGAR3DtBjXnS-26" edge="1">
          <mxGeometry relative="1" as="geometry">
            <Array as="points">
              <mxPoint x="201.47" y="155.5" />
              <mxPoint x="356.47" y="155.5" />
              <mxPoint x="356.47" y="253.5" />
            </Array>
          </mxGeometry>
        </mxCell>
        <mxCell id="MYKW1UoXWGAR3DtBjXnS-9" value="PEOPLE LOOKING FOR A NEW COMPANION" style="text;html=1;strokeColor=#b85450;fillColor=#f8cecc;align=center;verticalAlign=middle;whiteSpace=wrap;rounded=1;" parent="MYKW1UoXWGAR3DtBjXnS-23" vertex="1">
          <mxGeometry x="72.47" y="91.5" width="257" height="30" as="geometry" />
        </mxCell>
        <mxCell id="MYKW1UoXWGAR3DtBjXnS-19" style="edgeStyle=orthogonalEdgeStyle;rounded=0;orthogonalLoop=1;jettySize=auto;html=1;fillColor=#dae8fc;strokeColor=#6c8ebf;strokeWidth=2;" parent="MYKW1UoXWGAR3DtBjXnS-23" source="MYKW1UoXWGAR3DtBjXnS-7" target="MYKW1UoXWGAR3DtBjXnS-4" edge="1">
          <mxGeometry relative="1" as="geometry" />
        </mxCell>
        <mxCell id="MYKW1UoXWGAR3DtBjXnS-25" style="edgeStyle=orthogonalEdgeStyle;rounded=0;orthogonalLoop=1;jettySize=auto;html=1;entryX=0;entryY=0.5;entryDx=0;entryDy=0;strokeWidth=2;fillColor=#d80073;strokeColor=#A50040;" parent="MYKW1UoXWGAR3DtBjXnS-23" source="MYKW1UoXWGAR3DtBjXnS-7" target="MYKW1UoXWGAR3DtBjXnS-24" edge="1">
          <mxGeometry relative="1" as="geometry">
            <Array as="points">
              <mxPoint x="193.47" y="85.5" />
              <mxPoint x="17.47" y="85.5" />
              <mxPoint x="17.47" y="192.5" />
            </Array>
          </mxGeometry>
        </mxCell>
        <mxCell id="MYKW1UoXWGAR3DtBjXnS-7" value="TOUGH SITUATIONS WITHOUT EASY SAFE SOLUTIONS" style="text;html=1;strokeColor=#b85450;fillColor=#f8cecc;align=center;verticalAlign=middle;whiteSpace=wrap;rounded=1;glass=0;shadow=0;" parent="MYKW1UoXWGAR3DtBjXnS-23" vertex="1">
          <mxGeometry x="57.47" y="47.5" width="272" height="30" as="geometry" />
        </mxCell>
        <mxCell id="MYKW1UoXWGAR3DtBjXnS-8" style="edgeStyle=orthogonalEdgeStyle;rounded=0;orthogonalLoop=1;jettySize=auto;html=1;exitX=0.5;exitY=1;exitDx=0;exitDy=0;" parent="MYKW1UoXWGAR3DtBjXnS-23" source="MYKW1UoXWGAR3DtBjXnS-7" target="MYKW1UoXWGAR3DtBjXnS-7" edge="1">
          <mxGeometry relative="1" as="geometry" />
        </mxCell>
        <mxCell id="66fBQwTO3rRXyVcx0N7x-5" style="edgeStyle=orthogonalEdgeStyle;rounded=0;orthogonalLoop=1;jettySize=auto;html=1;entryX=0;entryY=0.5;entryDx=0;entryDy=0;fillColor=#1ba1e2;strokeColor=#006EAF;strokeWidth=2;" parent="MYKW1UoXWGAR3DtBjXnS-23" source="MYKW1UoXWGAR3DtBjXnS-24" target="66fBQwTO3rRXyVcx0N7x-1" edge="1">
          <mxGeometry relative="1" as="geometry" />
        </mxCell>
        <mxCell id="MYKW1UoXWGAR3DtBjXnS-24" value="Make it easier for owners in tough situations, to find a new safe and loving home for their animal(s)." style="text;html=1;strokeColor=#005700;fillColor=#008a00;align=center;verticalAlign=middle;whiteSpace=wrap;rounded=1;fontColor=#FFFFFF;" parent="MYKW1UoXWGAR3DtBjXnS-23" vertex="1">
          <mxGeometry x="37.47" y="177.5" width="303" height="30" as="geometry" />
        </mxCell>
        <mxCell id="66fBQwTO3rRXyVcx0N7x-6" style="edgeStyle=orthogonalEdgeStyle;rounded=0;orthogonalLoop=1;jettySize=auto;html=1;fillColor=#1ba1e2;strokeColor=#006EAF;strokeWidth=2;" parent="MYKW1UoXWGAR3DtBjXnS-23" source="MYKW1UoXWGAR3DtBjXnS-26" target="66fBQwTO3rRXyVcx0N7x-2" edge="1">
          <mxGeometry relative="1" as="geometry" />
        </mxCell>
        <mxCell id="MYKW1UoXWGAR3DtBjXnS-26" value="&lt;font color=&quot;#ffffff&quot;&gt;Make it easier for people looking for a new companion, to more easily find one that fits their life&lt;/font&gt;" style="text;html=1;strokeColor=#005700;fillColor=#008a00;align=center;verticalAlign=middle;whiteSpace=wrap;rounded=1;fontColor=#ffffff;" parent="MYKW1UoXWGAR3DtBjXnS-23" vertex="1">
          <mxGeometry x="37.47" y="238.5" width="299" height="30" as="geometry" />
        </mxCell>
        <mxCell id="66fBQwTO3rRXyVcx0N7x-7" style="edgeStyle=orthogonalEdgeStyle;rounded=0;orthogonalLoop=1;jettySize=auto;html=1;entryX=0;entryY=0.5;entryDx=0;entryDy=0;fillColor=#1ba1e2;strokeColor=#006EAF;strokeWidth=2;" parent="MYKW1UoXWGAR3DtBjXnS-23" source="66fBQwTO3rRXyVcx0N7x-1" target="66fBQwTO3rRXyVcx0N7x-3" edge="1">
          <mxGeometry relative="1" as="geometry" />
        </mxCell>
        <mxCell id="66fBQwTO3rRXyVcx0N7x-1" value="Reduced Animal Abandonment" style="text;html=1;strokeColor=#005700;fillColor=#008a00;align=center;verticalAlign=middle;whiteSpace=wrap;rounded=1;fontColor=#ffffff;" parent="MYKW1UoXWGAR3DtBjXnS-23" vertex="1">
          <mxGeometry x="372.47" y="177.5" width="169" height="30" as="geometry" />
        </mxCell>
        <mxCell id="66fBQwTO3rRXyVcx0N7x-8" style="edgeStyle=orthogonalEdgeStyle;rounded=0;orthogonalLoop=1;jettySize=auto;html=1;entryX=0;entryY=0.5;entryDx=0;entryDy=0;fillColor=#1ba1e2;strokeColor=#006EAF;strokeWidth=2;" parent="MYKW1UoXWGAR3DtBjXnS-23" source="66fBQwTO3rRXyVcx0N7x-2" target="66fBQwTO3rRXyVcx0N7x-3" edge="1">
          <mxGeometry relative="1" as="geometry" />
        </mxCell>
        <mxCell id="66fBQwTO3rRXyVcx0N7x-2" value="Less people looking for a companion through puppy mills" style="text;html=1;strokeColor=#005700;fillColor=#008a00;align=center;verticalAlign=middle;whiteSpace=wrap;rounded=1;fontColor=#ffffff;" parent="MYKW1UoXWGAR3DtBjXnS-23" vertex="1">
          <mxGeometry x="381.47" y="238.5" width="217" height="30" as="geometry" />
        </mxCell>
        <mxCell id="66fBQwTO3rRXyVcx0N7x-9" style="edgeStyle=orthogonalEdgeStyle;rounded=0;orthogonalLoop=1;jettySize=auto;html=1;entryX=0.5;entryY=0;entryDx=0;entryDy=0;fillColor=#1ba1e2;strokeColor=#006EAF;strokeWidth=2;" parent="MYKW1UoXWGAR3DtBjXnS-23" source="66fBQwTO3rRXyVcx0N7x-3" target="66fBQwTO3rRXyVcx0N7x-4" edge="1">
          <mxGeometry relative="1" as="geometry" />
        </mxCell>
        <mxCell id="66fBQwTO3rRXyVcx0N7x-3" value="Reduction of animals in shelters and kennels" style="text;html=1;strokeColor=#005700;fillColor=#008a00;align=center;verticalAlign=middle;whiteSpace=wrap;rounded=1;fontColor=#ffffff;" parent="MYKW1UoXWGAR3DtBjXnS-23" vertex="1">
          <mxGeometry x="630.97" y="174.5" width="175" height="30" as="geometry" />
        </mxCell>
        <mxCell id="66fBQwTO3rRXyVcx0N7x-4" value="More happy, healthy animals!" style="text;html=1;strokeColor=#005700;fillColor=#008a00;align=center;verticalAlign=middle;whiteSpace=wrap;rounded=1;fontColor=#ffffff;" parent="MYKW1UoXWGAR3DtBjXnS-23" vertex="1">
          <mxGeometry x="645.47" y="238.5" width="153" height="30" as="geometry" />
        </mxCell>
        <mxCell id="rTGL_3dFPh7_Ok8thwQr-7" value="ANIMAL EUTHANASIA" style="text;html=1;strokeColor=#b85450;fillColor=#f8cecc;align=center;verticalAlign=middle;whiteSpace=wrap;rounded=1;" parent="MYKW1UoXWGAR3DtBjXnS-23" vertex="1">
          <mxGeometry x="593" y="126" width="246" height="30" as="geometry" />
        </mxCell>
        <mxCell id="rTGL_3dFPh7_Ok8thwQr-5" value="" style="endArrow=none;html=1;rounded=0;exitX=0.5;exitY=1;exitDx=0;exitDy=0;fillColor=#dae8fc;strokeColor=#6c8ebf;strokeWidth=2;entryX=0.5;entryY=0;entryDx=0;entryDy=0;" parent="1" source="1Y42PiByceGQKW-uyaXE-60" target="1Y42PiByceGQKW-uyaXE-60" edge="1">
          <mxGeometry width="50" height="50" relative="1" as="geometry">
            <mxPoint x="920" y="-881" as="sourcePoint" />
            <mxPoint x="924" y="-1092" as="targetPoint" />
          </mxGeometry>
        </mxCell>
        <mxCell id="rTGL_3dFPh7_Ok8thwQr-12" style="edgeStyle=orthogonalEdgeStyle;rounded=0;orthogonalLoop=1;jettySize=auto;html=1;entryX=1;entryY=0.5;entryDx=0;entryDy=0;fillColor=#dae8fc;strokeColor=#6c8ebf;strokeWidth=2;" parent="1" source="rTGL_3dFPh7_Ok8thwQr-9" target="AdRa6NuN1TQCRi0MgPPj-2" edge="1">
          <mxGeometry relative="1" as="geometry">
            <Array as="points">
              <mxPoint x="667" y="-1029" />
              <mxPoint x="667" y="-501" />
            </Array>
          </mxGeometry>
        </mxCell>
        <mxCell id="rTGL_3dFPh7_Ok8thwQr-9" value="MY APPLICATION" style="swimlane;whiteSpace=wrap;html=1;fillColor=#f8cecc;strokeColor=#b85450;strokeWidth=3;" parent="1" vertex="1">
          <mxGeometry x="699" y="-1129" width="619" height="200" as="geometry" />
        </mxCell>
        <mxCell id="rTGL_3dFPh7_Ok8thwQr-10" value="My application is for animal owners looking for a safe new home for their animals. It is also for people looking for a new companion to fit their specific lifestyle. A user can create a post for their animal, who is in need of a new home. Other users on the platform can scroll through different posts made by different users, and if seeing a post they like they can click on the animal to find more information about it. Once on the animal&#39;s page, they can also tag the animal to save to look at later. For users looking for a new companion, they have the opportunity on the post page to narrow down their search using a search bar with specific filters for breed, species, age, etc. If a user finds an animal that they are very interested in, they can direct message the current owner of the animal for more information concerning specific details they would like to know." style="text;html=1;strokeColor=none;fillColor=none;align=left;verticalAlign=middle;whiteSpace=wrap;rounded=0;fontColor=#FFFFFF;" parent="rTGL_3dFPh7_Ok8thwQr-9" vertex="1">
          <mxGeometry x="11" y="85" width="561.03" height="30" as="geometry" />
        </mxCell>
      </root>
    </mxGraphModel>
  </diagram>
</mxfile>
